<?xml version="1.0" standalone="no"?>
<!DOCTYPE svg PUBLIC "-//W3C//DTD SVG 20010904//EN"
 "http://www.w3.org/TR/2001/REC-SVG-20010904/DTD/svg10.dtd">
<svg version="1.0" xmlns="http://www.w3.org/2000/svg"
 width="291.000000pt" height="291.000000pt" viewBox="0 0 291.000000 291.000000"
 preserveAspectRatio="xMidYMid meet">

<g transform="translate(0.000000,291.000000) scale(0.100000,-0.100000)"
fill="#000000" stroke="none">
<path d="M725 2530 c-3 -5 -3 -43 1 -85 8 -92 1 -95 -69 -25 -47 47 -67 60
-67 43 0 -5 9 -35 19 -68 17 -55 25 -101 22 -132 -1 -6 -23 -27 -50 -46 -27
-20 -63 -56 -81 -81 -29 -43 -31 -50 -24 -104 5 -52 3 -65 -25 -120 -17 -34
-31 -67 -31 -73 0 -14 37 -60 98 -122 l47 -48 67 5 c43 4 68 2 70 -5 2 -6 0
-56 -5 -112 l-8 -102 80 -165 c78 -162 135 -316 205 -558 41 -140 56 -222 56
-305 0 -51 -3 -58 -24 -67 -26 -9 -70 -89 -64 -117 2 -9 17 -20 33 -25 49 -14
88 -1 128 42 20 22 39 40 42 40 11 0 -15 -38 -50 -73 -38 -38 -43 -57 -19 -81
24 -25 63 -30 132 -18 105 17 146 78 143 211 -1 57 16 131 31 131 11 0 10 -27
-1 -34 -14 -9 -19 -67 -9 -103 22 -82 118 -84 212 -6 49 41 73 46 156 32 59
-9 88 -9 133 1 73 15 85 33 116 170 12 55 29 107 37 115 23 23 109 45 224 56
136 14 211 8 284 -25 65 -29 96 -27 96 7 0 32 -9 42 -67 71 -90 45 -153 56
-323 56 l-156 0 -11 92 c-12 106 -26 141 -58 156 -18 9 -25 24 -34 79 -23 134
-53 230 -108 341 -46 95 -62 119 -101 148 -60 43 -137 80 -203 97 l-52 14 -62
119 c-56 108 -67 123 -126 168 -48 37 -71 63 -94 108 -16 32 -51 83 -77 113
-45 50 -68 63 -141 80 -17 3 -67 42 -120 94 -122 116 -155 138 -172 111z m815
-1800 c0 -5 -2 -10 -4 -10 -3 0 -8 5 -11 10 -3 6 -1 10 4 10 6 0 11 -4 11 -10z
m-20 -50 c0 -5 -2 -10 -4 -10 -3 0 -8 5 -11 10 -3 6 -1 10 4 10 6 0 11 -4 11
-10z m-360 -62 c0 -12 -3 -18 -7 -14 -11 10 -12 36 -2 36 5 0 9 -10 9 -22z
m314 -22 c-3 -9 -10 -13 -16 -10 -5 3 -4 12 3 20 15 18 22 13 13 -10z m-322
-46 c-2 -22 -8 -40 -12 -40 -5 0 -7 8 -5 18 2 9 4 27 4 40 1 12 4 22 9 22 4 0
6 -18 4 -40z m293 -1 c-10 -15 -25 -10 -19 6 4 8 10 12 15 9 5 -3 7 -10 4 -15z
m-25 -50 c-10 -17 -30 -27 -30 -13 0 15 22 44 31 39 5 -4 5 -13 -1 -26z m-270
-69 c0 -16 -4 -30 -8 -30 -5 0 -8 10 -6 23 1 12 3 25 3 30 3 21 11 3 11 -23z
m0 -80 c0 -5 -2 -10 -4 -10 -3 0 -8 5 -11 10 -3 6 -1 10 4 10 6 0 11 -4 11
-10z m0 -30 c0 -5 -4 -10 -10 -10 -5 0 -10 5 -10 10 0 6 5 10 10 10 6 0 10 -4
10 -10z"/>
</g>
</svg>
